<?xml version="1.0" standalone="no"?>
<!DOCTYPE svg PUBLIC "-//W3C//DTD SVG 20010904//EN" "http://www.w3.org/TR/2001/REC-SVG-20010904/DTD/svg10.dtd">
<svg version="1.0" xmlns="http://www.w3.org/2000/svg"
    width="256.000000pt" height="256.000000pt" viewBox="0 0 256.000000 256.000000"
    preserveAspectRatio="xMidYMid meet">

    <g transform="translate(0.000000,256.000000) scale(0.100000,-0.100000)"
        fill="#6F02B5" stroke="none">
        <path
            d="M0 1280 l0 -1280 1280 0 1280 0 0 1280 0 1280 -1280 0 -1280 0 0
-1280z m1638 82 l-763 -2 -80 80 -80 80 683 0 682 0 0 82 0 83 160 -160 160
-160 -762 -3z m127 -242 l80 -80 -682 0 -682 0 -3 -80 -3 -80 -160 160 -160
160 765 0 765 0 80 -80z m-65 -495 c0 -33 -2 -35 -35 -35 -33 0 -35 2 -35 35
0 33 2 35 35 35 33 0 35 -2 35 -35z m-530 -124 c43 -31 50 -57 50 -203 l0
-138 -35 0 c-19 0 -35 5 -35 10 0 7 -7 7 -21 -1 -32 -17 -134 -7 -159 16 -11
10 -25 35 -31 56 -10 31 -9 43 7 76 22 45 61 62 147 62 50 1 57 3 57 21 0 11
-9 29 -21 41 -21 21 -58 22 -114 5 -12 -4 -29 1 -44 13 l-24 18 27 18 c57 37
148 40 196 6z m830 0 c41 -29 60 -78 60 -155 0 -132 -55 -193 -166 -184 -91 8
-134 66 -134 180 0 73 26 140 61 159 61 32 133 32 179 0z m309 18 c28 -6 60
-18 72 -27 l20 -17 -24 -23 c-23 -21 -25 -22 -60 -7 -67 28 -127 14 -127 -30
0 -26 1 -26 114 -40 66 -9 96 -39 96 -97 0 -78 -50 -118 -147 -118 -57 0 -133
26 -147 49 -4 6 1 22 11 35 l18 24 40 -21 c68 -34 155 -22 155 22 0 27 -21 41
-59 41 -106 1 -154 34 -154 105 0 55 30 92 84 105 48 11 52 11 108 -1z m-925
-54 c20 -30 38 -55 41 -55 2 0 19 25 37 55 31 53 34 55 76 55 l43 0 -59 -88
-59 -87 58 -85 c32 -47 58 -88 58 -92 1 -5 -16 -8 -36 -8 -35 0 -41 4 -77 60
-21 33 -40 60 -42 60 -2 0 -22 -27 -44 -60 -38 -57 -43 -60 -81 -60 -46 0 -48
-7 28 102 29 43 53 80 53 83 0 3 -22 38 -48 78 -27 40 -52 78 -56 85 -5 9 3
12 32 12 36 0 42 -4 76 -55z m316 -125 l0 -180 -35 0 -35 0 0 180 0 180 35 0
35 0 0 -180z" />
        <path
            d="M1033 310 c-30 -12 -32 -64 -4 -80 27 -14 94 -13 109 2 7 7 12 29 12
50 l0 38 -47 -1 c-27 0 -58 -4 -70 -9z" />
        <path
            d="M1856 428 c-11 -15 -16 -45 -16 -90 0 -78 19 -108 70 -108 52 0 70
29 70 113 0 86 -14 107 -73 107 -26 0 -40 -6 -51 -22z" />
    </g>
</svg>