<svg width="91" height="71" viewBox="0 0 91 71" fill="none" xmlns="http://www.w3.org/2000/svg">
    <g id="undraw_cloud_files_wmo8 1">
        <g id="Coud">
            <path id="Vector"
                d="M18.0274 35.617C18.3518 30.196 20.7027 25.0601 24.6608 21.125C28.619 17.1899 33.9272 14.7113 39.6391 14.1312C45.3509 13.5511 51.0951 14.9071 55.8475 17.9576C60.5999 21.008 64.0516 25.5546 65.5871 30.7866C65.8808 30.7767 66.1742 30.7655 66.4705 30.7655C67.4811 30.7746 68.4837 30.9358 69.4407 31.2431C81.4983 34.9853 78.3233 51.9999 65.6322 51.9999H34.4425C32.2366 52.0058 30.0521 51.5909 28.0199 50.7801C25.9876 49.9693 24.1493 48.7793 22.6151 47.2812C21.0809 45.7832 19.8823 44.0079 19.091 42.0617C18.2998 40.1156 17.9322 38.0385 18.0103 35.9549C18.0151 35.8424 18.0208 35.7298 18.0274 35.617Z"
                fill="#EE3A6D" />
        </g>
        <g id="Arrow">
            <path id="Vector_2"
                d="M47.5107 33.7057V25H42.2222V33.7057H38L41.4331 38.977L44.8667 44.2479L48.2998 38.977L51.7329 33.7057H47.5107Z"
                fill="white" />
        </g>
    </g>
</svg>