<svg id="Capa_x0020_1" xmlns="http://www.w3.org/2000/svg" xmlns:xlink="http://www.w3.org/1999/xlink" width="91.022" height="52.147" viewBox="0 0 91.022 52.147">
  <defs>
    <linearGradient id="linear-gradient" x1="0.743" y1="0.184" x2="0.287" y2="0.656" gradientUnits="objectBoundingBox">
      <stop offset="0" stop-color="#f20e4e"/>
      <stop offset="1" stop-color="#470000"/>
    </linearGradient>
    <linearGradient id="linear-gradient-2" x1="0.555" y1="0.527" x2="0.117" y2="0.26" gradientUnits="objectBoundingBox">
      <stop offset="0" stop-color="#ee3a6d"/>
      <stop offset="1" stop-color="#470000"/>
    </linearGradient>
    <linearGradient id="linear-gradient-3" x1="0.733" y1="0.847" x2="0.176" y2="-0.116" xlink:href="#linear-gradient-2"/>
    <linearGradient id="linear-gradient-4" x1="0.748" y1="-0.42" x2="0.11" y2="0.864" gradientUnits="objectBoundingBox">
      <stop offset="0" stop-color="#989898"/>
      <stop offset="1" stop-color="#313131"/>
    </linearGradient>
    <linearGradient id="linear-gradient-5" x1="0.586" y1="0.708" x2="0.056" y2="-0.195" gradientUnits="objectBoundingBox">
      <stop offset="0" stop-color="#a6a6a6"/>
      <stop offset="1" stop-color="#bab8b8"/>
    </linearGradient>
    <linearGradient id="linear-gradient-6" x1="0.719" y1="-0.127" x2="0.19" y2="0.858" xlink:href="#linear-gradient-2"/>
  </defs>
  <path id="Trazado_10" data-name="Trazado 10" d="M44.365,22.883l-1.488-5.965c-.125-.5-2.052-1.673-1.689-2.056L54.91.412A1.642,1.642,0,0,1,56.118,0H66.394c.548,0,.642.316.287.7L46.1,23.14c-.439.479-1.613.244-1.738-.256Z" transform="translate(2.759 0)" fill-rule="evenodd" fill="url(#linear-gradient)"/>
  <path id="Trazado_11" data-name="Trazado 11" d="M44.789,22.664l-1.912-5.746c-.163-.491-2.053-1.675-1.689-2.056L55,.412A1.649,1.649,0,0,1,56.207,0H66.838c.548,0,.647.32.287.7l-20.531,21.9c-.445.474-1.641.548-1.8.057Z" transform="translate(2.759 0)" fill="#87082c" fill-rule="evenodd"/>
  <path id="Trazado_12" data-name="Trazado 12" d="M41.8,10.71,32.387.37c-.208-.229-.434-.309-1.311-.279l-9.8.344c-.691.024-1.091.356-.737.745l22.42,24.614a1.291,1.291,0,0,0,1.962.147L60.31,9.22c-6.426,3.891-15.988,4.254-18.5,1.491Z" transform="translate(1.368 0)" fill-rule="evenodd" fill="url(#linear-gradient-2)"/>
  <path id="Trazado_13" data-name="Trazado 13" d="M1.131,22.861l7.693-.432c.548-.031,1.808-.833,2.254-.343L34.544,47.849c.446.49.443,1.111-.317,1.111H24.32a2.668,2.668,0,0,1-2.071-.773L1.164,25.284c-.449-.488-.581-2.392-.033-2.423Z" transform="translate(0.052 0)" stroke="#000" stroke-width="0.074" fill-rule="evenodd" fill="url(#linear-gradient-3)"/>
  <path id="Trazado_14" data-name="Trazado 14" d="M14.506,20.921,32.657.736C33.1.243,33.34,0,32.263,0H21.608a1.643,1.643,0,0,0-1.4.569L.86,21.768c-.754.707-1.149,1.888-.611,2.471L17.423,42.817c-5.849-9.275-6.851-17.52-2.917-21.9Z" transform="translate(0 0)" fill="#ee3a6d" fill-rule="evenodd"/>
  <path id="Trazado_15" data-name="Trazado 15" d="M45.511,49.4l-2.633-6.66c-.19-.482-2.044-1.666-1.689-2.056L56.335,24.054a1.6,1.6,0,0,1,1.208-.412l10.919-.1c.548,0,.642.316.287.7L46.1,48.96c-.439.479-.4.921-.593.439Z" transform="translate(2.759 0)" fill-rule="evenodd" fill="url(#linear-gradient-4)"/>
  <path id="Trazado_16" data-name="Trazado 16" d="M41.956,36.532,30.706,24.181a2.521,2.521,0,0,0-1.685-.559h-10c-.692,0-1.092.355-.737.745L43.1,51.615a1.291,1.291,0,0,0,1.962.147L60.461,35.041c-6.426,3.891-15.988,4.254-18.5,1.491Z" transform="translate(1.217 0)" fill-rule="evenodd" fill="url(#linear-gradient-5)"/>
  <path id="Trazado_17" data-name="Trazado 17" d="M86.187,23.581l-7.693.432c-.547.031-1.8.83-2.254.343L54.687,1.039C54.238.553,54.552,0,54.979,0H65.5c.951,0,1.027-.034,1.477.452l19.177,20.7c.451.487.581,2.393.033,2.423Z" transform="translate(3.653 0)" fill-rule="evenodd" fill="url(#linear-gradient-6)"/>
  <path id="Trazado_18" data-name="Trazado 18" d="M72.962,25.521,53.313,47.234c-.445.492-.534,1.982.543,1.956l9.453-.229c1.021-.025,1.339-.354,2.11-1.195L86.608,24.674c.754-.707,1.149-1.888.611-2.471L70.045,3.625c5.849,9.275,6.866,17.532,2.917,21.9Z" transform="translate(3.554 0)" fill="#ee3a6d" fill-rule="evenodd"/>
</svg>
