<?xml version="1.0" encoding="utf-8"?>
<!-- Generator: Adobe Illustrator 28.1.0, SVG Export Plug-In . SVG Version: 6.00 Build 0)  -->
<svg version="1.1" id="Capa_1" xmlns="http://www.w3.org/2000/svg" xmlns:xlink="http://www.w3.org/1999/xlink" x="0px" y="0px"
	 viewBox="0 0 40 40" style="enable-background:new 0 0 40 40;" xml:space="preserve">
<style type="text/css">
	.st0{fill:#09FCA7;}
</style>
<g>
	<g>
		<path class="st0" d="M30.16,19c0,1.93-1.56,3.49-3.49,3.49c-0.89,0-1.71-0.34-2.33-0.89v7.88H3.38V8.52h7.18
			c-0.13,0.36-0.2,0.76-0.2,1.16c0,1.93,1.56,3.49,3.49,3.49c1.93,0,3.49-1.56,3.49-3.49c0-0.41-0.07-0.8-0.2-1.16h7.18v0.89
			c0,0-0.01,0.01-0.01,0.01c0.01,0.09,0.01,0.18,0.01,0.27v6.71c0.62-0.55,1.43-0.89,2.33-0.89C28.6,15.51,30.16,17.07,30.16,19z"/>
	</g>
</g>
</svg>
